<?xml version="1.0" standalone="no"?>
<!DOCTYPE svg PUBLIC "-//W3C//DTD SVG 20010904//EN"
 "http://www.w3.org/TR/2001/REC-SVG-20010904/DTD/svg10.dtd">
<svg version="1.0" xmlns="http://www.w3.org/2000/svg"
 width="997.000000pt" height="666.000000pt" viewBox="0 0 997.000000 666.000000"
 preserveAspectRatio="xMidYMid meet">

<g transform="translate(0.000000,666.000000) scale(0.100000,-0.100000)"
fill="#000000" stroke="none">
<path d="M0 4865 c0 -987 2 -1795 5 -1795 11 0 54 77 56 100 1 14 -1 72 -5
130 -10 126 0 171 49 226 19 21 35 42 35 46 0 11 96 60 157 80 29 9 62 22 75
29 45 24 112 80 129 108 25 41 97 108 142 132 32 16 55 19 119 18 73 -3 83 -6
128 -38 27 -20 50 -41 50 -47 0 -6 10 -22 23 -35 13 -13 31 -40 40 -59 9 -19
23 -42 30 -51 18 -24 69 -32 91 -16 18 13 18 15 3 38 -18 24 -23 54 -9 45 5
-3 22 2 38 11 16 8 44 16 62 18 19 2 40 12 48 22 8 11 13 13 14 5 0 -9 10 -11
37 -6 40 8 63 24 63 46 0 8 5 19 12 26 9 9 8 12 -4 12 -10 0 -19 -12 -23 -30
-4 -16 -11 -30 -16 -30 -13 0 -11 14 3 28 9 9 8 15 -8 26 -17 13 -20 13 -24
-6 -5 -20 -49 -46 -51 -30 -7 63 4 101 14 50 l4 -23 8 23 c4 12 16 22 26 22
11 0 19 7 19 15 0 8 5 15 10 15 6 0 10 -5 10 -11 0 -5 5 -7 10 -4 15 9 12 32
-5 39 -8 3 -25 -5 -39 -19 -14 -14 -30 -25 -36 -25 -12 0 -14 27 -1 34 5 3 8
17 8 30 0 18 -6 25 -28 30 -17 3 -29 12 -29 21 0 19 20 19 48 -1 32 -22 39
-10 18 34 -17 33 -19 35 -27 17 -5 -14 -8 -7 -8 28 -1 34 2 46 11 41 8 -5 9
-2 5 9 -3 10 -2 17 3 17 6 0 10 -11 10 -25 0 -14 5 -25 11 -25 5 0 7 5 4 10
-3 6 -1 10 5 10 6 0 9 4 5 9 -3 5 2 16 10 24 8 9 15 22 15 30 0 8 7 17 15 21
10 4 15 20 15 51 0 28 -4 44 -10 40 -6 -3 -10 3 -10 14 0 12 3 21 8 21 4 0 18
23 32 51 29 63 84 120 144 150 25 12 46 25 46 29 0 3 14 7 32 8 17 1 37 10 43
19 7 9 17 13 24 9 7 -4 15 3 21 18 5 14 14 26 20 26 5 0 10 6 10 13 0 6 21 32
45 55 25 24 43 48 39 53 -3 5 1 9 9 9 8 0 22 10 30 23 14 19 16 19 16 4 1 -16
3 -16 26 -1 14 9 22 20 19 25 -3 5 5 9 16 9 12 0 35 9 51 20 30 22 129 43 154
33 8 -3 23 -2 33 2 9 4 27 8 39 9 18 1 22 -2 17 -16 -4 -13 -1 -16 11 -12 9 4
14 13 11 20 -3 8 -1 14 3 14 5 0 11 -7 15 -15 3 -8 12 -15 20 -15 25 0 96 -41
96 -55 0 -21 15 -25 44 -12 25 12 26 15 26 94 0 68 4 89 26 132 15 28 30 51
34 51 4 0 12 11 18 24 12 27 3 73 -23 123 -24 47 -30 132 -14 189 30 103 193
221 311 226 64 2 138 -14 195 -41 92 -45 109 -26 98 112 -5 56 -9 136 -9 177
-1 72 1 78 40 136 80 119 151 188 227 221 43 19 71 22 165 23 69 0 134 -6 165
-14 74 -21 156 -30 282 -31 110 -1 185 -11 185 -25 0 -4 18 -12 40 -19 21 -6
77 -32 124 -56 47 -25 90 -45 97 -45 6 0 44 15 83 34 39 19 93 40 119 47 63
15 191 7 240 -17 l38 -18 72 36 c91 46 192 58 277 33 30 -9 75 -20 100 -26
193 -43 236 -59 338 -126 49 -32 60 -35 135 -37 97 -2 149 -25 193 -83 49 -64
56 -83 61 -167 5 -74 9 -85 41 -125 20 -24 44 -46 54 -49 10 -2 18 -8 18 -13
0 -5 12 -9 28 -9 20 1 35 12 60 46 30 41 63 62 147 95 40 15 108 17 154 3 103
-31 159 -12 187 64 10 26 21 51 26 57 4 5 8 18 8 28 0 22 61 137 72 137 5 0 8
6 8 13 1 31 102 99 279 188 l84 43 96 -14 c168 -23 254 -27 281 -14 14 7 44
31 67 53 96 93 211 141 339 141 81 0 135 -13 231 -56 50 -22 66 -17 120 39 62
64 67 67 125 94 71 34 129 45 199 40 439 -33 481 -33 704 8 172 32 199 34 326
25 138 -10 169 -15 212 -37 l27 -14 0 51 0 50 -4985 0 -4985 0 0 -1795z m1959
1203 c20 -7 45 -22 56 -33 11 -11 29 -25 39 -30 10 -6 34 -40 52 -75 28 -55
35 -83 45 -179 12 -127 21 -147 82 -181 23 -13 37 -29 37 -41 0 -14 7 -19 26
-19 14 0 23 -4 19 -10 -10 -17 4 -48 22 -46 11 1 19 -10 24 -34 4 -19 4 -36
-1 -38 -5 -2 -6 -19 -3 -38 5 -28 1 -38 -18 -54 -13 -11 -32 -27 -43 -37 -14
-13 -20 -15 -23 -5 -6 17 -16 15 -43 -8 -28 -24 -70 -27 -70 -5 0 9 -6 15 -12
13 -19 -3 -58 12 -58 23 0 5 -6 9 -13 9 -6 0 -25 14 -40 30 -16 17 -37 31 -48
31 -24 2 -27 3 -71 22 -21 10 -44 17 -52 17 -8 0 -18 5 -21 10 -3 6 -14 10
-24 10 -11 0 -29 13 -42 30 -13 16 -32 30 -42 30 -9 0 -23 11 -29 25 -8 18
-19 25 -38 25 -15 0 -35 9 -44 19 -13 14 -36 21 -84 25 -113 9 -116 10 -138
50 -15 26 -21 56 -22 101 -1 73 10 89 63 87 28 -1 33 2 28 15 -5 14 0 15 38 9
24 -4 49 -14 56 -22 21 -28 113 -26 113 2 0 8 4 14 9 14 4 0 11 28 15 62 3 34
13 69 21 78 8 9 15 21 15 27 0 19 57 60 111 81 65 25 64 25 108 10z m-709
-1928 c0 -26 -5 -40 -13 -40 -9 0 -11 12 -9 40 2 22 8 40 13 40 5 0 9 -18 9
-40z m-100 -10 c0 -5 -5 -10 -11 -10 -5 0 -7 5 -4 10 3 6 8 10 11 10 2 0 4 -4
4 -10z m57 -22 c-3 -7 -5 -2 -5 12 0 14 2 19 5 13 2 -7 2 -19 0 -25z"/>
<path d="M2296 4905 c7 -17 20 -20 28 -6 3 5 -1 12 -10 15 -22 9 -24 8 -18 -9z"/>
<path d="M4793 4266 c4 -10 7 -56 8 -102 0 -46 5 -84 10 -84 5 0 8 -8 7 -17
-4 -54 3 -92 16 -87 9 4 13 -2 11 -20 -2 -14 1 -26 7 -26 6 0 8 13 4 33 -3 17
-10 77 -16 132 -6 55 -15 104 -20 109 -6 6 -10 22 -10 37 0 15 -5 31 -12 35
-8 5 -9 2 -5 -10z"/>
<path d="M4895 4265 c2 -11 9 -51 16 -90 15 -94 26 -111 21 -33 -2 35 -13 81
-23 103 -10 22 -17 31 -14 20z"/>
<path d="M1354 4205 c-3 -14 -4 -35 -1 -47 4 -13 0 -26 -10 -33 -9 -7 -13 -17
-9 -23 10 -17 26 -15 26 3 0 8 5 15 10 15 12 0 13 37 2 44 -5 3 -7 19 -4 36 5
36 -5 40 -14 5z"/>
<path d="M4406 4148 c-13 -59 -10 -100 10 -124 8 -10 13 -14 10 -9 -11 24 -15
129 -4 142 7 9 7 13 -1 13 -6 0 -13 -10 -15 -22z"/>
<path d="M1391 4077 c-7 -9 -11 -26 -9 -39 4 -22 5 -22 17 6 14 35 10 54 -8
33z"/>
<path d="M4534 4055 c12 -117 67 -359 112 -494 14 -40 23 -75 20 -78 -2 -2
-19 16 -37 41 -18 25 -36 46 -41 46 -5 0 -72 61 -149 137 -76 75 -142 133
-145 130 -3 -3 -17 -1 -31 4 -35 13 -47 2 -29 -27 18 -26 22 -94 5 -94 -6 0
-8 9 -4 20 5 15 3 18 -9 14 -20 -8 -21 -28 -2 -43 8 -7 17 -25 21 -40 3 -16
16 -33 30 -39 14 -7 25 -18 25 -26 0 -8 4 -16 9 -18 5 -1 27 -33 49 -69 26
-44 37 -71 32 -80 -6 -8 -4 -16 3 -21 6 -4 9 -10 5 -13 -3 -3 -27 4 -53 16
-31 15 -87 62 -159 135 -123 125 -129 131 -174 194 -45 64 -72 94 -78 87 -3
-3 2 -17 11 -31 9 -14 16 -27 16 -30 -4 -29 2 -56 17 -74 9 -11 24 -30 32 -41
8 -12 20 -21 27 -21 7 0 13 -4 13 -9 0 -7 101 -110 154 -156 44 -40 202 -150
212 -147 8 1 10 -14 7 -50 -3 -29 -5 -56 -6 -59 -5 -20 -179 134 -389 344
-132 132 -242 236 -245 233 -4 -3 25 -39 64 -79 39 -39 97 -101 129 -136 61
-67 217 -220 269 -266 17 -14 64 -49 106 -78 55 -37 86 -66 107 -102 36 -59
62 -83 120 -109 23 -10 42 -23 42 -27 0 -5 26 -20 57 -34 31 -15 67 -35 80
-45 29 -23 56 -16 48 11 -8 26 2 24 47 -7 46 -32 51 -68 13 -86 -14 -6 -25
-18 -25 -26 0 -10 -9 -8 -32 10 -18 14 -112 64 -209 112 -96 47 -197 101 -225
119 -27 17 -66 41 -87 52 -64 33 -229 162 -280 218 -72 78 -91 97 -99 97 -14
0 -8 -20 7 -26 8 -4 15 -11 15 -18 0 -6 16 -27 35 -47 19 -20 32 -39 30 -43
-3 -3 -2 -4 1 -2 3 3 38 -22 76 -55 39 -32 75 -59 81 -59 5 0 7 -7 4 -14 -4
-10 -1 -13 9 -9 9 3 21 -3 29 -14 8 -11 28 -26 45 -33 18 -8 29 -18 26 -26 -3
-7 0 -15 7 -17 7 -2 -10 -2 -38 1 -27 2 -60 4 -72 4 -13 0 -20 4 -17 9 3 5 -2
9 -10 9 -9 0 -16 -4 -16 -10 0 -21 -18 -9 -30 20 -12 30 -38 44 -26 15 8 -23
-23 -18 -69 10 -22 13 -48 25 -57 25 -10 0 -18 3 -18 8 0 4 -39 8 -86 9 -81 1
-88 3 -118 31 -28 28 -35 30 -84 25 -39 -4 -55 -11 -64 -26 -9 -17 -8 -19 7
-13 13 5 16 2 11 -9 -3 -9 -2 -13 4 -10 6 3 10 1 10 -4 0 -6 8 -11 18 -11 9 0
23 -9 30 -21 11 -17 11 -23 0 -36 -8 -10 -9 -18 -3 -20 24 -8 75 -44 75 -52 0
-5 -11 -8 -25 -5 -16 3 -25 0 -26 -8 0 -7 -4 -4 -9 7 -8 19 -9 19 -9 -2 -1
-13 4 -23 10 -23 5 0 8 -4 5 -9 -4 -5 3 -7 13 -4 12 3 28 -4 41 -17 12 -12 36
-28 53 -35 18 -8 28 -14 23 -15 -5 0 8 -17 30 -38 40 -40 118 -68 154 -57 20
6 100 -22 100 -36 0 -5 5 -9 11 -9 5 0 8 4 5 9 -5 8 91 7 297 -2 55 -3 50 -21
-8 -24 -133 -7 -130 -6 -131 -38 0 -24 -4 -30 -20 -28 -36 3 -138 31 -214 57
-41 15 -94 33 -118 41 -24 7 -48 18 -55 23 -13 10 -96 32 -121 32 -22 0 -9
-28 17 -36 20 -7 19 -8 -13 -22 l-35 -14 23 -18 c23 -19 32 -57 10 -44 -17 11
8 -20 58 -73 23 -23 45 -39 49 -35 5 4 6 0 3 -9 -5 -14 -1 -14 35 -5 52 13 51
12 41 28 -5 7 -10 23 -12 36 -2 17 2 22 18 22 12 0 19 4 15 10 -3 5 -11 7 -19
4 -7 -3 -13 2 -13 10 0 13 4 13 28 -1 18 -11 24 -20 17 -24 -6 -4 -8 -14 -5
-23 3 -8 1 -18 -4 -22 -6 -3 -2 -12 11 -21 12 -8 24 -12 27 -9 3 3 12 1 19 -5
16 -14 84 17 84 38 0 23 23 39 65 47 29 5 36 4 25 -3 -19 -13 -33 -12 150 -18
85 -3 160 -9 167 -15 13 -11 86 -13 135 -4 26 5 19 -1 -32 -28 -36 -19 -96
-47 -135 -62 -144 -56 -355 -178 -355 -205 0 -20 94 4 184 46 112 51 180 80
229 96 20 7 37 17 37 22 0 4 4 6 8 3 5 -3 22 2 38 9 23 12 20 7 -16 -25 -25
-22 -42 -40 -38 -40 9 0 101 62 109 73 3 5 10 9 15 9 5 0 8 4 7 9 -2 4 4 6 11
3 8 -3 24 4 35 15 12 12 21 17 21 12 0 -5 -7 -14 -14 -21 -21 -17 -51 -99 -40
-110 5 -5 26 7 50 28 58 53 117 78 149 64 30 -14 32 -41 11 -123 -17 -62 -39
-190 -62 -349 -31 -219 -71 -305 -326 -695 -46 -71 -105 -161 -130 -200 -75
-116 -202 -326 -240 -395 -71 -130 -86 -157 -133 -245 -137 -256 -145 -271
-227 -407 -32 -53 -58 -99 -58 -102 0 -3 24 -6 54 -6 l55 0 49 88 c28 49 107
200 177 338 188 367 269 512 441 784 30 47 54 91 54 98 0 7 4 12 9 12 4 0 19
20 32 45 13 25 27 45 31 45 5 0 8 7 8 16 0 8 11 30 24 47 13 18 26 41 28 52 1
11 11 29 21 39 9 11 17 24 17 28 0 5 4 7 9 3 6 -3 9 3 9 12 -3 36 12 70 36 82
22 12 33 33 43 85 2 11 8 25 13 31 5 6 26 56 45 111 20 54 39 101 41 104 15
14 -16 -163 -34 -196 -10 -19 -13 -69 -4 -59 2 2 15 -8 28 -22 14 -15 28 -22
35 -17 9 5 10 2 5 -12 -5 -14 -4 -16 4 -8 12 12 3 47 -11 38 -14 -8 -10 6 6
22 8 9 19 13 24 9 11 -6 36 -76 33 -89 -2 -5 7 -6 18 -3 21 5 21 5 3 -15 -17
-20 -17 -21 0 -15 10 4 16 3 13 -2 -3 -5 1 -15 10 -22 13 -10 17 -10 25 2 5 8
7 20 4 27 -2 6 2 12 10 12 30 0 35 33 11 75 -23 39 -25 53 -12 91 6 20 48 44
77 44 19 0 34 -41 18 -51 -14 -8 -6 -45 9 -42 6 2 9 -3 6 -10 -4 -10 13 -13
72 -12 77 2 85 -1 116 -43 15 -20 58 -45 65 -39 2 3 -9 20 -25 38 -28 34 -50
75 -33 65 5 -3 11 4 14 15 8 31 25 14 38 -37 6 -24 16 -44 21 -44 5 0 6 10 2
23 -4 12 -8 40 -8 62 -1 39 -32 99 -86 165 -11 14 -20 31 -20 38 0 14 -16 16
-25 2 -3 -5 -2 -10 4 -10 6 0 8 -6 5 -14 -3 -8 -1 -17 5 -21 6 -3 11 -10 11
-16 0 -15 -19 -10 -42 11 -12 10 -25 17 -29 14 -5 -3 -17 0 -27 5 -14 7 -18
18 -15 36 3 14 9 25 13 25 4 0 4 17 0 38 -12 54 -19 212 -10 212 4 0 7 13 6
30 -1 16 -4 30 -8 30 -5 0 -8 6 -8 13 1 6 10 1 21 -12 11 -14 18 -33 15 -44
-3 -13 0 -17 10 -13 19 7 30 -20 15 -38 -6 -7 -9 -21 -5 -30 9 -24 23 -19 16
6 l-5 21 21 -21 c12 -12 22 -29 22 -37 0 -8 4 -15 8 -15 4 0 16 -22 26 -50 10
-27 23 -50 28 -50 6 0 8 7 4 15 -3 8 -8 38 -12 67 -4 29 -11 59 -16 65 -6 7
-7 20 -4 29 5 14 11 11 31 -16 14 -19 25 -37 25 -41 0 -9 56 -74 88 -102 13
-12 22 -32 22 -49 0 -28 13 -37 25 -18 14 22 37 -20 33 -60 -3 -31 -1 -37 10
-28 11 9 13 2 11 -40 l-3 -52 -20 19 c-20 19 -22 19 -43 1 -33 -26 -28 -44 15
-59 20 -8 48 -22 62 -31 14 -10 35 -20 46 -24 18 -6 22 -2 26 23 15 106 -33
228 -154 393 -51 69 -56 79 -42 93 9 8 20 15 26 15 6 0 8 3 5 7 -4 3 1 11 9
18 14 9 14 16 5 33 -18 35 14 42 44 10 20 -22 34 -26 106 -31 88 -6 104 -3 92
16 -9 15 -9 49 1 65 6 10 20 11 50 7 22 -4 38 -4 34 0 -5 5 1 15 13 23 16 11
17 17 8 28 -13 16 -13 16 66 16 46 -1 47 0 15 7 -43 9 -80 28 -80 41 0 6 29
10 65 10 60 0 80 9 55 25 -5 3 -10 10 -10 16 0 21 52 5 161 -50 144 -73 243
-107 338 -116 67 -6 75 -5 97 16 32 30 30 35 -14 43 -41 6 -184 53 -317 104
-44 17 -118 40 -165 52 -47 12 -101 25 -120 31 -19 5 -54 13 -77 19 -23 6 -48
16 -55 23 -7 6 -26 12 -43 13 -70 1 -221 16 -227 23 -4 4 12 7 37 7 24 1 57 6
72 12 15 7 38 13 51 15 12 2 28 9 34 15 7 7 23 12 37 12 19 0 22 3 13 12 -9 9
-27 9 -80 -1 -37 -8 -96 -15 -132 -18 -36 -2 -74 -8 -85 -12 -64 -27 -81 -31
-125 -31 -28 0 -50 4 -50 10 0 6 -9 6 -26 0 -43 -17 -56 -13 -42 10 7 11 18
20 24 20 6 0 21 12 35 27 13 15 16 21 7 14 -10 -7 -18 -11 -18 -8 0 3 42 39
94 81 52 42 104 88 115 102 15 19 26 24 41 19 29 -9 25 12 -6 28 l-26 14 113
84 c97 71 114 89 114 112 1 19 -3 26 -12 23 -19 -8 -16 -1 17 36 30 32 39 58
20 58 -5 0 -10 -5 -10 -11 0 -5 -4 -7 -10 -4 -5 3 -23 -7 -40 -22 -169 -153
-248 -231 -249 -245 -1 -10 -7 -17 -13 -15 -8 1 -12 -6 -10 -18 2 -15 1 -17
-6 -6 -8 11 -21 5 -63 -28 -30 -22 -61 -47 -69 -54 -8 -7 -28 -21 -45 -31 -16
-10 -49 -40 -72 -65 -39 -42 -42 -44 -43 -22 0 13 -3 22 -6 18 -3 -3 -14 2
-24 11 -17 14 -17 18 -4 43 8 15 14 34 14 41 1 19 37 64 46 56 4 -4 2 -13 -4
-21 -6 -7 -7 -18 -3 -26 7 -11 13 -8 25 12 9 13 29 27 44 31 15 3 34 11 42 18
29 25 60 77 54 92 -3 9 -1 16 6 16 6 0 8 -4 5 -10 -3 -5 -1 -10 4 -10 6 0 11
7 11 16 0 9 9 32 21 50 24 40 18 59 -14 41 -12 -6 -25 -16 -29 -22 -4 -5 -8
-7 -8 -2 0 4 -9 -1 -20 -10 -11 -10 -29 -26 -40 -35 -11 -10 -24 -18 -30 -18
-5 0 -17 -11 -26 -25 -22 -34 -44 -32 -44 4 0 17 4 32 9 35 4 3 11 19 14 35 4
18 14 32 27 36 17 6 20 12 15 36 -5 23 -1 36 22 63 15 18 35 42 43 54 10 16
16 18 22 9 4 -6 5 5 1 26 -5 30 -3 37 11 37 10 0 14 -4 11 -10 -10 -17 4 -11
27 10 18 17 20 23 10 45 -18 40 -14 50 9 24 l20 -24 -7 24 c-4 16 -3 21 5 17
7 -5 9 -1 5 8 -3 9 -10 13 -15 10 -16 -9 -10 14 8 32 9 9 25 40 35 68 21 62
21 63 6 48 -7 -7 -15 -12 -18 -12 -10 0 -11 111 -1 143 5 18 12 51 15 75 5 33
3 42 -9 42 -8 0 -15 -3 -15 -7 -1 -5 -25 -35 -55 -68 -42 -47 -56 -57 -66 -48
-10 10 -21 5 -53 -24 -68 -61 -133 -190 -171 -342 -20 -79 -45 -289 -37 -309
4 -11 1 -13 -9 -7 -11 6 -12 5 -1 -6 14 -16 16 -33 2 -24 -5 3 -10 2 -10 -4 0
-5 4 -12 9 -15 9 -6 -18 -106 -28 -106 -3 0 -7 34 -8 75 -2 44 -9 89 -20 112
-9 21 -17 43 -18 50 0 6 -4 15 -8 19 -4 4 -7 29 -7 55 0 26 -4 50 -9 53 -12 8
-13 124 -1 145 6 13 5 18 -5 18 -8 0 -17 -7 -20 -16 -7 -18 -33 -152 -44 -221
-6 -40 -8 -43 -18 -25 -19 33 -23 12 -13 -70 5 -43 9 -80 7 -81 -6 -6 -107
204 -107 223 0 12 -10 38 -55 138 -19 44 -24 60 -50 160 -13 50 -28 104 -33
120 -19 55 -30 99 -47 180 -9 44 -23 100 -31 125 l-14 45 4 -40z m879 -416
c-36 -37 -51 -37 -21 -1 13 16 29 29 36 29 6 0 0 -13 -15 -28z m-33 -73 c0 -6
-5 -4 -11 4 -9 12 -10 11 -6 -8 3 -12 1 -20 -4 -16 -5 3 -9 0 -9 -7 0 -7 -3
-10 -6 -6 -3 3 -3 20 1 37 6 25 9 29 21 19 8 -6 14 -17 14 -23z m-50 -72 c-14
-36 -31 -67 -46 -81 -7 -7 -14 -18 -17 -25 -2 -7 -7 -10 -11 -6 -8 7 19 64 40
86 8 7 14 19 14 27 0 11 7 17 27 24 1 1 -2 -11 -7 -25z m-96 -178 c-3 -15 -8
-25 -11 -23 -2 3 -1 17 3 31 3 15 8 25 11 23 2 -3 1 -17 -3 -31z m-624 -137
c101 -81 180 -159 165 -159 -6 0 -50 16 -98 37 -61 26 -104 53 -144 90 -31 28
-60 50 -64 47 -10 -6 -29 29 -29 53 0 11 5 24 12 31 15 15 30 5 158 -99z m650
72 c0 -6 -4 -13 -10 -16 -5 -3 -10 1 -10 9 0 9 5 16 10 16 6 0 10 -4 10 -9z
m-1450 -141 c0 -5 -2 -10 -4 -10 -3 0 -8 5 -11 10 -3 6 -1 10 4 10 6 0 11 -4
11 -10z m1175 -50 c3 -6 -1 -7 -9 -4 -18 7 -21 14 -7 14 6 0 13 -4 16 -10z
m25 -68 c0 -8 -5 -10 -12 -6 -8 5 -8 1 2 -12 22 -29 24 -30 17 -11 -4 9 -2 17
3 17 19 0 4 -89 -15 -93 -11 -2 -26 109 -18 131 5 11 7 11 14 0 5 -7 9 -19 9
-26z m-120 -37 l0 -30 -24 30 c-14 17 -27 37 -29 46 -4 15 -2 15 24 0 22 -12
29 -23 29 -46z m-520 45 c0 -5 -2 -10 -4 -10 -3 0 -8 5 -11 10 -3 6 -1 10 4
10 6 0 11 -4 11 -10z m54 -42 c-4 -6 8 -9 27 -7 21 1 61 -11 104 -30 39 -18
84 -39 100 -46 29 -13 29 -14 -32 -14 -34 -1 -70 -4 -80 -7 -12 -4 -14 -3 -6
3 9 6 7 12 -7 21 -14 9 -19 9 -18 1 2 -6 -3 -14 -11 -17 -9 -3 -11 0 -6 8 6
10 4 12 -8 7 -8 -3 -21 0 -27 8 -6 7 -22 16 -35 19 -36 9 -31 23 8 20 31 -3
31 -3 -6 9 -50 17 -70 45 -27 39 17 -2 27 -9 24 -14z m33 -94 c-3 -3 -12 -4
-19 -1 -8 3 -5 6 6 6 11 1 17 -2 13 -5z m-90 -60 c-3 -3 -12 -4 -19 -1 -8 3
-5 6 6 6 11 1 17 -2 13 -5z m131 -19 c28 -4 52 -11 52 -15 0 -3 23 -4 50 0 28
4 53 3 56 -2 3 -5 11 -8 17 -7 24 3 38 -1 33 -10 -8 -12 24 -23 38 -14 7 5 3
0 -7 -9 -11 -10 -27 -18 -36 -18 -14 0 -52 -9 -146 -36 -11 -3 -27 -5 -35 -5
-8 1 -30 1 -47 1 -18 0 -33 5 -33 10 0 10 5 12 33 14 18 2 39 24 32 36 -3 5
-16 11 -28 11 -18 1 -19 2 -4 6 32 8 13 25 -32 28 -24 2 -48 8 -54 14 -11 11
5 10 111 -4z m-741 -97 c-3 -8 -6 -5 -6 6 -1 11 2 17 5 13 3 -3 4 -12 1 -19z
m53 -12 c0 -8 -4 -18 -10 -21 -5 -3 -10 3 -10 14 0 12 5 21 10 21 6 0 10 -6
10 -14z m275 -16 c3 -6 -1 -7 -9 -4 -18 7 -21 14 -7 14 6 0 13 -4 16 -10z
m1353 -278 c8 8 9 5 5 -12 -5 -17 -3 -21 6 -15 16 9 63 -14 54 -28 -3 -5 -9
-4 -14 4 -4 7 -11 10 -15 6 -4 -3 -1 -13 6 -22 7 -9 10 -19 6 -23 -4 -4 -12 1
-17 11 -6 10 -32 40 -60 68 -27 27 -49 53 -49 56 0 4 -7 16 -17 27 -9 12 6 -2
34 -31 36 -38 53 -49 61 -41z m-91 -74 c-3 -8 -6 -5 -6 6 -1 11 2 17 5 13 3
-3 4 -12 1 -19z m6 -38 c-3 -12 -8 -19 -11 -16 -5 6 5 36 12 36 2 0 2 -9 -1
-20z m-273 -154 c0 -15 3 -16 14 -7 12 10 16 6 25 -25 11 -40 -3 -64 -24 -43
-6 6 -5 13 4 18 7 5 10 14 7 20 -4 6 -12 8 -18 5 -14 -9 -28 15 -28 51 0 23 3
27 10 15 5 -8 10 -23 10 -34z m210 -166 c0 -5 -8 -10 -17 -10 -15 0 -16 2 -3
10 19 12 20 12 20 0z m-133 -32 c-3 -8 -6 -5 -6 6 -1 11 2 17 5 13 3 -3 4 -12
1 -19z"/>
<path d="M3970 3931 c0 -21 32 -75 71 -120 22 -24 39 -48 39 -52 0 -5 6 -9 13
-9 7 0 27 -16 46 -35 29 -31 71 -48 71 -27 0 4 -23 31 -51 61 -43 46 -50 59
-47 86 3 24 0 31 -9 28 -7 -3 -13 -9 -13 -15 0 -5 -5 -6 -11 -2 -6 3 -9 14 -6
24 3 14 1 17 -11 13 -10 -4 -13 -2 -8 5 5 8 0 12 -13 12 -11 0 -25 8 -30 18
-6 9 -11 13 -11 8 0 -5 -7 -3 -15 4 -11 9 -15 9 -15 1z"/>
<path d="M4846 3911 c-9 -14 1 -95 24 -211 29 -144 40 -170 35 -85 -5 87 -6
95 -17 89 -4 -3 -8 12 -8 33 -1 53 -4 86 -11 98 -3 6 -6 26 -8 44 -2 39 -6 47
-15 32z"/>
<path d="M4120 3830 c0 -5 5 -10 10 -10 6 0 10 5 10 10 0 6 -4 10 -10 10 -5 0
-10 -4 -10 -10z"/>
<path d="M1375 3810 c3 -5 8 -10 11 -10 2 0 4 5 4 10 0 6 -5 10 -11 10 -5 0
-7 -4 -4 -10z"/>
<path d="M4156 3811 c-4 -7 -5 -15 -2 -18 9 -9 19 4 14 18 -4 11 -6 11 -12 0z"/>
<path d="M4185 3760 c3 -5 8 -10 11 -10 2 0 4 5 4 10 0 6 -5 10 -11 10 -5 0
-7 -4 -4 -10z"/>
<path d="M3780 3705 c0 -8 27 -43 60 -77 44 -46 56 -55 45 -33 -8 17 -31 48
-50 70 -19 22 -35 43 -35 47 0 5 -4 8 -10 8 -5 0 -10 -7 -10 -15z"/>
<path d="M4802 3610 c0 -14 2 -19 5 -12 2 6 2 18 0 25 -3 6 -5 1 -5 -13z"/>
<path d="M4810 3551 c0 -6 4 -13 10 -16 6 -3 7 1 4 9 -7 18 -14 21 -14 7z"/>
<path d="M3810 3531 c0 -10 19 -25 25 -20 1 2 -3 10 -11 17 -8 7 -14 8 -14 3z"/>
<path d="M3955 3500 c3 -5 8 -10 11 -10 2 0 4 5 4 10 0 6 -5 10 -11 10 -5 0
-7 -4 -4 -10z"/>
<path d="M3840 3490 c0 -5 5 -10 11 -10 5 0 7 5 4 10 -3 6 -8 10 -11 10 -2 0
-4 -4 -4 -10z"/>
<path d="M3860 3461 c0 -5 7 -11 15 -15 8 -3 15 -1 15 3 0 5 -7 11 -15 15 -8
3 -15 1 -15 -3z"/>
<path d="M5831 3396 c-7 -8 -8 -17 -3 -20 6 -3 13 1 16 10 9 23 2 28 -13 10z"/>
<path d="M5304 3315 c-4 -8 -12 -15 -20 -15 -16 0 -16 -6 -4 -35 8 -18 9 -18
9 -2 1 10 8 29 17 42 9 14 13 25 10 25 -4 0 -9 -7 -12 -15z"/>
<path d="M3730 3206 c0 -2 7 -9 15 -16 9 -7 15 -8 15 -2 0 5 -7 12 -15 16 -8
3 -15 4 -15 2z"/>
<path d="M3985 3150 c-4 -6 3 -10 14 -10 25 0 27 6 6 13 -8 4 -17 2 -20 -3z"/>
<path d="M5503 2823 c-21 -22 -21 -23 -3 -23 10 0 22 5 25 10 3 6 14 10 24 10
9 0 26 7 37 15 18 13 16 14 -21 12 -26 -1 -48 -10 -62 -24z"/>
<path d="M5424 2828 c-3 -4 13 -8 35 -8 23 0 41 2 41 4 0 8 -71 12 -76 4z"/>
<path d="M3960 2780 c-13 -9 -13 -10 0 -10 8 0 22 5 30 10 13 9 13 10 0 10 -8
0 -22 -5 -30 -10z"/>
<path d="M5290 2146 c0 -15 18 -31 26 -23 7 7 -7 37 -17 37 -5 0 -9 -6 -9 -14z"/>
<path d="M428 2125 c-3 -3 -30 -10 -59 -14 -76 -13 -83 -15 -91 -26 -5 -6 -8
-4 -8 5 -1 9 -6 5 -15 -10 l-15 -25 4 28 c3 15 0 27 -5 27 -5 0 -9 -5 -9 -10
0 -6 -11 -15 -23 -19 -13 -5 -29 -22 -36 -38 -12 -29 -84 -73 -120 -73 -52 0
-51 5 -51 -244 1 -226 1 -230 19 -209 29 35 115 63 170 56 25 -3 48 -9 51 -12
22 -27 70 -48 95 -43 55 10 86 82 49 113 -14 12 -14 14 0 24 8 7 16 30 17 54
2 23 9 47 16 53 7 6 13 17 13 24 0 8 15 31 33 51 18 21 41 58 50 83 23 64 38
154 26 159 -6 1 -22 14 -36 27 -24 22 -62 32 -75 19z"/>
<path d="M5321 2064 c0 -11 3 -14 6 -6 3 7 2 16 -1 19 -3 4 -6 -2 -5 -13z"/>
<path d="M5265 2011 c-3 -5 -1 -12 5 -16 5 -3 10 1 10 9 0 18 -6 21 -15 7z"/>
<path d="M5515 1988 c9 -29 11 -31 24 -23 17 10 13 23 -10 36 -19 10 -20 9
-14 -13z"/>
<path d="M5480 1868 c0 -15 4 -29 9 -33 16 -9 18 9 5 35 l-14 25 0 -27z"/>
<path d="M7600 1831 c0 -5 5 -13 10 -16 6 -3 10 -2 10 4 0 5 -4 13 -10 16 -5
3 -10 2 -10 -4z"/>
<path d="M7566 1805 c-20 -15 -40 -105 -24 -105 5 0 4 -9 -2 -19 -15 -29 -12
-33 13 -16 32 20 73 113 60 133 -13 22 -25 24 -47 7z"/>
<path d="M7281 1687 c-32 -40 -42 -90 -40 -215 2 -134 -4 -159 -44 -204 -20
-23 -33 -28 -71 -28 -27 0 -63 8 -86 20 -21 11 -46 17 -54 14 -20 -8 -31 -44
-16 -54 6 -4 12 -22 12 -40 1 -26 -6 -40 -31 -61 -18 -15 -42 -27 -54 -27 -60
-2 -71 -9 -94 -54 -22 -44 -27 -47 -96 -68 -115 -34 -197 -72 -197 -90 0 -16
64 -30 132 -30 76 0 130 -18 158 -52 27 -32 27 -130 0 -199 -12 -28 -18 -54
-14 -58 4 -3 9 0 11 7 3 6 21 12 40 12 41 0 93 45 93 80 0 22 119 143 164 167
24 12 30 13 37 1 14 -21 10 -127 -6 -157 -8 -16 -12 -31 -9 -34 3 -2 -9 -15
-26 -27 -17 -12 -29 -25 -26 -28 4 -3 0 -12 -8 -21 -8 -9 -16 -27 -18 -40 -3
-22 2 -26 36 -33 47 -10 61 0 69 46 3 21 20 48 44 72 21 22 45 53 53 69 25 54
48 73 81 69 18 -2 37 2 46 11 21 21 69 19 93 -5 11 -11 20 -24 20 -30 0 -5 9
-14 19 -20 16 -8 26 -5 49 15 31 26 52 32 52 15 0 -5 7 -7 15 -4 8 4 15 13 15
21 0 8 -3 12 -7 10 -5 -3 -8 18 -9 46 -1 29 -5 71 -9 94 -5 30 -4 47 5 58 18
22 6 41 -29 48 -36 8 -49 30 -30 53 13 16 112 64 131 64 5 0 28 9 50 20 23 11
48 20 55 20 7 0 13 7 13 15 0 24 -48 29 -124 12 -175 -39 -216 -40 -216 -7 0
33 65 78 135 94 52 12 103 53 124 98 11 24 49 73 85 110 36 36 66 71 66 77 0
20 -27 12 -76 -24 -27 -19 -76 -52 -109 -74 -33 -22 -64 -44 -70 -48 -5 -5
-37 -22 -70 -38 -33 -17 -75 -40 -94 -52 -19 -13 -42 -23 -52 -23 -11 0 -19
-6 -19 -14 0 -18 -30 -29 -35 -13 -8 25 -9 43 -2 88 7 41 5 52 -18 84 -29 44
-33 114 -11 207 8 31 11 59 8 62 -9 10 -29 6 -41 -7z"/>
<path d="M5630 1630 c0 -5 6 -10 14 -10 8 0 18 5 21 10 3 6 -3 10 -14 10 -12
0 -21 -4 -21 -10z"/>
<path d="M346 1444 c-3 -9 -6 -32 -6 -52 0 -33 2 -35 15 -21 9 8 18 32 22 52
4 29 2 37 -10 37 -8 0 -18 -7 -21 -16z"/>
<path d="M390 1370 c0 -5 -6 -10 -14 -10 -8 0 -16 -13 -18 -30 -4 -29 -3 -30
35 -30 36 0 39 2 33 23 -3 12 -6 30 -6 40 0 9 -7 17 -15 17 -8 0 -15 -4 -15
-10z m7 -52 c-3 -8 -6 -5 -6 6 -1 11 2 17 5 13 3 -3 4 -12 1 -19z"/>
<path d="M8504 1089 c-10 -11 -33 -27 -51 -34 -25 -10 -39 -27 -53 -61 l-20
-46 20 -33 c11 -18 20 -40 20 -49 0 -10 20 -25 53 -40 29 -12 61 -35 70 -50
17 -25 21 -27 75 -20 50 5 61 3 86 -17 l29 -23 -8 24 c-5 14 -9 61 -10 105 -1
91 -6 108 -40 123 -13 6 -32 24 -41 39 -25 40 -86 103 -99 103 -7 0 -20 -9
-31 -21z"/>
<path d="M283 1085 c-12 -9 -26 -14 -30 -13 -4 1 -24 -5 -43 -14 -19 -9 -74
-19 -122 -23 l-88 -7 0 -514 0 -514 1734 0 1735 0 13 47 c15 53 8 207 -11 226
-6 6 -11 21 -11 34 0 35 -22 75 -59 108 -19 16 -38 35 -43 40 -4 6 -23 28 -43
50 -19 22 -35 46 -35 54 0 20 -49 55 -90 64 -64 14 -103 17 -116 6 -8 -7 -14
-7 -19 1 -12 20 -95 10 -168 -19 -88 -35 -186 -55 -237 -46 -42 7 -120 -10
-120 -26 0 -6 -5 -7 -12 -3 -6 4 -16 1 -22 -7 -20 -26 -97 -46 -140 -37 -21 5
-55 10 -75 12 -20 1 -45 8 -57 14 -15 8 -24 7 -40 -6 -24 -19 -58 -75 -69
-112 -20 -64 -68 -150 -98 -176 -75 -64 -82 -68 -114 -66 -34 3 -114 35 -135
55 -7 7 -39 25 -71 41 -50 25 -64 28 -115 22 -131 -14 -216 -16 -223 -4 -4 6
-23 11 -42 10 -21 -1 -45 6 -59 17 -24 19 -61 27 -190 37 -43 4 -78 10 -78 14
0 11 -47 41 -72 45 -11 2 -25 8 -32 13 -6 5 -31 14 -56 21 -25 7 -62 17 -82
23 -42 12 -126 90 -134 125 -4 13 -10 23 -14 23 -12 0 -120 172 -120 191 0 22
-27 86 -40 94 -6 4 -17 21 -25 38 -8 18 -18 39 -23 47 -23 40 -32 61 -32 77
-1 24 -24 53 -41 53 -8 0 -24 -7 -36 -15z"/>
<path d="M6482 1073 c4 -36 46 -44 66 -13 17 28 7 40 -34 40 -33 0 -35 -2 -32
-27z"/>
<path d="M9200 1024 c0 -6 9 -29 20 -52 12 -24 25 -61 29 -85 24 -116 42 -188
57 -228 13 -36 17 -95 20 -324 2 -154 6 -290 9 -302 3 -15 0 -23 -12 -26 -10
-3 36 -5 102 -6 l121 -1 10 40 c10 34 9 42 -7 56 -9 8 -20 27 -24 42 -3 14
-15 38 -26 53 -10 15 -19 30 -19 34 0 4 -15 42 -34 84 -23 51 -47 138 -74 267
-29 137 -47 203 -65 230 -14 22 -37 73 -53 114 -27 73 -54 125 -54 104z"/>
<path d="M8896 540 c105 -130 124 -152 124 -137 0 13 -58 82 -144 171 -39 42
-36 35 20 -34z"/>
<path d="M9832 523 c-38 -100 -72 -225 -71 -256 1 -18 32 70 95 266 9 28 -13
19 -24 -10z"/>
<path d="M6843 478 c-9 -10 -36 -24 -60 -30 -24 -5 -43 -14 -43 -17 0 -14 103
-91 122 -91 10 0 29 11 42 25 22 23 22 28 11 77 -9 43 -16 53 -33 54 -12 1
-29 -7 -39 -18z"/>
<path d="M9742 203 c-6 -20 -7 -32 -2 -27 10 10 25 64 18 64 -3 0 -10 -16 -16
-37z"/>
<path d="M8950 69 c-106 -13 -130 -19 -130 -32 0 -28 66 -37 276 -37 235 1
240 5 69 55 -92 26 -110 28 -215 14z"/>
<path d="M9925 27 l-40 -22 39 -3 c44 -4 49 -1 44 26 -3 20 -3 20 -43 -1z"/>
</g>
</svg>
