<svg xmlns="http://www.w3.org/2000/svg" width="32" height="32" viewBox="0 0 32 32">
  <g id="facebook" transform="translate(-1209 -1553)">
    <circle id="Ellipse_19" data-name="Ellipse 19" cx="16" cy="16" r="16" transform="translate(1209 1553)" fill="none"/>
    <path id="facebook-2" data-name="facebook" d="M466.966,111.678a.218.218,0,0,0,.2.2h2.845a.218.218,0,0,0,.2-.2v-7.843h2.1a.218.218,0,0,0,.2-.2l.2-2.35a.184.184,0,0,0-.2-.2h-2.3v-1.7a.681.681,0,0,1,.7-.7h1.6a.218.218,0,0,0,.2-.2v-2.4a.218.218,0,0,0-.2-.2h-2.7a2.9,2.9,0,0,0-2.9,2.9h0v2.3h-1.4a.218.218,0,0,0-.2.2v2.35a.218.218,0,0,0,.2.2h1.449C466.966,103.835,466.966,111.678,466.966,111.678Z" transform="translate(755.68 1465.12)" fill="#fff"/>
  </g>
</svg>
