<svg xmlns="http://www.w3.org/2000/svg" width="32" height="32" viewBox="0 0 32 32">
  <g id="instagram" transform="translate(-1209 -1470)">
    <circle id="Ellipse_17" data-name="Ellipse 17" cx="16" cy="16" r="16" transform="translate(1209 1470)" fill="none"/>
    <path id="instagram-2" data-name="instagram" d="M1151.6,2964.235a3.307,3.307,0,0,1-3.31,3.311h-6.37a3.307,3.307,0,0,1-3.31-3.311v-6.37a3.307,3.307,0,0,1,3.31-3.311h6.37a3.307,3.307,0,0,1,3.31,3.311Zm1.5-6.42a4.816,4.816,0,0,0-4.815-4.815h-6.37a4.816,4.816,0,0,0-4.815,4.815h0v6.37a4.816,4.816,0,0,0,4.815,4.815h6.37a4.816,4.816,0,0,0,4.815-4.815Zm-7.975,5.868a2.558,2.558,0,1,1,2.558-2.558A2.636,2.636,0,0,1,1145.125,2963.683Zm0-6.52a3.962,3.962,0,1,0,3.962,3.962A4,4,0,0,0,1145.125,2957.163Zm4.163-1.2a.953.953,0,1,0,.953.953A.922.922,0,0,0,1149.288,2955.959Z" transform="translate(79.9 -1475)" fill="#fff"/>
  </g>
</svg>
