<svg xmlns="http://www.w3.org/2000/svg" width="32" height="32" viewBox="0 0 32 32">
  <g id="pinterest" transform="translate(-653 -1892)">
    <circle id="Ellipse_4" data-name="Ellipse 4" cx="16" cy="16" r="16" transform="translate(653 1892)" fill="none"/>
    <path id="pinterest-2" data-name="pinterest" d="M7.993,0A8,8,0,0,0,5.079,15.441a7.7,7.7,0,0,1,.026-2.3c.145-.625.934-3.974.934-3.974A2.912,2.912,0,0,1,5.8,7.987c0-1.112.645-1.941,1.447-1.941A1,1,0,0,1,8.263,7.171,15.8,15.8,0,0,1,7.6,9.836a1.163,1.163,0,0,0,1.184,1.447c1.421,0,2.513-1.5,2.513-3.658a3.154,3.154,0,0,0-3.342-3.25A3.459,3.459,0,0,0,4.342,7.842a3.12,3.12,0,0,0,.592,1.822.238.238,0,0,1,.053.23c-.059.25-.2.8-.224.908-.033.145-.118.178-.27.105a3.581,3.581,0,0,1-1.625-3.1c0-2.52,1.829-4.836,5.283-4.836a4.692,4.692,0,0,1,4.928,4.618c0,2.757-1.737,4.974-4.145,4.974a2.124,2.124,0,0,1-1.829-.921l-.5,1.9a8.709,8.709,0,0,1-.993,2.1A8,8,0,1,0,7.993,0Z" transform="translate(661 1900)" fill="#fff"/>
  </g>
</svg>
