<svg xmlns="http://www.w3.org/2000/svg" xmlns:xlink="http://www.w3.org/1999/xlink" width="357.33" height="291.302" viewBox="0 0 357.33 291.302">
  <defs>
    <linearGradient id="linear-gradient" x1="0.5" x2="0.5" y2="1" gradientUnits="objectBoundingBox">
      <stop offset="0" stop-color="#4dc8ff"/>
      <stop offset="1" stop-color="#09d"/>
    </linearGradient>
  </defs>
  <g id="tigercodes-ad" transform="translate(-1176 -634)">
    <rect id="bg" width="357.33" height="291.302" transform="translate(1176 634)" fill="url(#linear-gradient)"/>
    <g id="logo" transform="translate(1914 396)">
      <path id="Tiger_Codes" data-name="Tiger Codes" d="M7.474-50.42h8.162V-68.3h7.09v-6.329H.384V-68.3h7.09ZM28.157-70.861c2.871,0,4.7-1.729,4.7-4.116,0-2.248-1.833-3.839-4.7-3.839s-4.7,1.729-4.7,3.977S25.286-70.861,28.157-70.861ZM24.249-50.42h7.817V-69.339H24.249ZM49.22-69.339v2.144c-1.176-1.695-3.009-2.49-5.6-2.49a8.868,8.868,0,0,0-9.1,9.1,8.9,8.9,0,0,0,9.1,9.131,6.532,6.532,0,0,0,5.223-2.006v.346c0,2.525-1.28,3.943-4.5,3.943a10.9,10.9,0,0,1-6.053-1.868l-2.629,5.326a17.49,17.49,0,0,0,9.477,2.352c7.229,0,11.517-3.493,11.517-10.826V-69.339ZM45.693-57.545a3.037,3.037,0,0,1-3.251-3.044A3.01,3.01,0,0,1,45.693-63.6a2.981,2.981,0,0,1,3.217,3.009A3.008,3.008,0,0,1,45.693-57.545ZM80.245-59.9c0-6.4-4.808-9.788-10.411-9.788-6.122,0-10.722,4.047-10.722,9.788,0,5.638,4.5,9.823,11.448,9.823,3.77,0,6.433-1.038,8.266-3.044l-4.081-4.116A5.78,5.78,0,0,1,70.8-55.85c-1.937,0-3.251-.761-3.8-2.214H80.141C80.175-58.617,80.245-59.344,80.245-59.9ZM69.9-64.359a2.936,2.936,0,0,1,3.044,2.525H66.86A2.913,2.913,0,0,1,69.9-64.359ZM90.136-67.3v-2.041H82.7V-50.42h7.817v-8.4c0-3.009,1.66-4.081,4.012-4.081a10.832,10.832,0,0,1,1.729.138v-6.917A7.772,7.772,0,0,0,90.136-67.3ZM121.61-49.867c4.738,0,8.474-1.729,10.86-4.842l-5.153-4.6a6.541,6.541,0,0,1-5.292,2.836c-3.389,0-5.672-2.352-5.672-6.053s2.283-6.053,5.672-6.053a6.541,6.541,0,0,1,5.292,2.836l5.153-4.6c-2.386-3.113-6.122-4.842-10.86-4.842-7.782,0-13.489,5.223-13.489,12.659S113.828-49.867,121.61-49.867Zm22.447-.208c6.433,0,11-4.081,11-9.823s-4.565-9.788-11-9.788c-6.4,0-11,4.047-11,9.788S137.659-50.074,144.057-50.074Zm0-6.087c-1.729,0-3.078-1.28-3.078-3.735s1.349-3.7,3.078-3.7,3.078,1.245,3.078,3.7S145.786-56.162,144.057-56.162ZM170.62-76.084v8.024a6.587,6.587,0,0,0-4.808-1.626c-4.946,0-9.131,3.7-9.131,9.788s4.185,9.823,9.131,9.823c2.352,0,4.047-.623,5.188-1.9v1.556h7.436V-76.084Zm-2.94,19.922c-1.729,0-3.078-1.28-3.078-3.735s1.349-3.7,3.078-3.7,3.078,1.245,3.078,3.7S169.409-56.162,167.68-56.162ZM202.024-59.9c0-6.4-4.808-9.788-10.411-9.788-6.122,0-10.722,4.047-10.722,9.788,0,5.638,4.5,9.823,11.448,9.823,3.77,0,6.433-1.038,8.266-3.044l-4.081-4.116a5.78,5.78,0,0,1-3.943,1.383c-1.937,0-3.251-.761-3.8-2.214h13.143C201.955-58.617,202.024-59.344,202.024-59.9Zm-10.341-4.462a2.936,2.936,0,0,1,3.044,2.525h-6.087A2.913,2.913,0,0,1,191.683-64.359Zm20.2,14.284c6.571,0,9.788-2.974,9.788-6.4,0-7.574-10.86-5.015-10.86-6.987,0-.45.553-.9,2.559-.9a11.208,11.208,0,0,1,5.465,1.383l2.144-5.153a17.847,17.847,0,0,0-7.713-1.556c-6.364,0-9.684,2.905-9.684,6.468,0,7.574,10.895,4.98,10.895,6.917,0,.553-.519.9-2.421.9a13.69,13.69,0,0,1-6.606-1.695L203.3-51.942A18.981,18.981,0,0,0,211.882-50.074Z" transform="translate(-670.384 508.715)" fill="#fff"/>
      <path id="logo-2" data-name="logo" d="M835.712,105.749a59.649,59.649,0,0,0-17.556-38.565,36.94,36.94,0,0,0,17.556-29.553q.051-.963.05-1.937V35.68h-.05c-.339,0-.676,0-1.013.014a36.947,36.947,0,0,0-32.038,20.4q-1.889-.939-3.851-1.745a59.893,59.893,0,0,0-45.34,0q-1.962.806-3.851,1.745a36.947,36.947,0,0,0-32.037-20.4c-.337-.01-.674-.014-1.013-.014h-.05v.014q0,.975.05,1.937a36.941,36.941,0,0,0,17.556,29.553,59.65,59.65,0,0,0-17.556,38.565q-.121,1.9-.12,3.83v0a59.423,59.423,0,0,0,6.636,27.379,14.214,14.214,0,0,1,19.676-14.931,22.748,22.748,0,0,0-15.613,21.659c.016.024.034.05.052.074a22.978,22.978,0,0,1,2.224-2.581,22.733,22.733,0,0,1,5.958-4.29,21.886,21.886,0,0,1,2.517-1.065,22.363,22.363,0,0,1,3.3-.894,22.809,22.809,0,0,1,10.19.359,22.612,22.612,0,0,1,10.124,5.818c.026.024.05.048.074.072s.05.05.074.076a8.531,8.531,0,0,0,10.92.832,8.376,8.376,0,0,0,1.067-.9,8.507,8.507,0,0,0,2.5-6.03,8.507,8.507,0,0,0,2.5,6.03,8.359,8.359,0,0,0,1.067.9,8.531,8.531,0,0,0,10.92-.832c.024-.026.048-.05.074-.076s.048-.048.074-.072a22.711,22.711,0,0,1,20.314-6.177,22.377,22.377,0,0,1,3.295.894,21.9,21.9,0,0,1,2.517,1.065,22.891,22.891,0,0,1,8.182,6.871c.018-.024.036-.05.052-.074A22.755,22.755,0,0,0,809.52,122.03,14.214,14.214,0,0,1,829.2,136.961a59.421,59.421,0,0,0,6.636-27.379v0Q835.833,107.649,835.712,105.749ZM764.447,73.78l.59-.588a.006.006,0,0,1,.006-.006l.469-.469a1.869,1.869,0,0,1,.263-.213,15.961,15.961,0,0,1,20.733,0,1.891,1.891,0,0,1,.263.213l.469.469a.006.006,0,0,1,.006.006l.59.588a1.628,1.628,0,0,1-2.3,2.3l-.836-.84a12.668,12.668,0,0,0-17.115,0l-.836.84a1.628,1.628,0,0,1-2.3-2.3Zm11.694,4.374a5.724,5.724,0,0,0-4.33,1.661l-.708.688a1.768,1.768,0,0,1-2.5-2.5l.686-.7a1.266,1.266,0,0,1,.13-.126l.126-.12a.34.34,0,0,1,.076-.056,10,10,0,0,1,13.04,0,.337.337,0,0,1,.076.056l.127.12a1.31,1.31,0,0,1,.13.126l.686.7a1.768,1.768,0,0,1-2.5,2.5l-.708-.688A5.725,5.725,0,0,0,776.141,78.154Zm2.842,5.992a2.842,2.842,0,1,1-2.842-2.842A2.842,2.842,0,0,1,778.983,84.146ZM754.412,99.912a8.53,8.53,0,0,1-1.426-10.168c.046-.082.092-.164.141-.247l14.768,8.525c-.046.082-.092.164-.14.247a8.531,8.531,0,0,1-13.343,1.643Zm33.058,25.935a14.18,14.18,0,0,0-11.249,5.529c-.028.034-.056.07-.08.106-.026-.036-.054-.072-.082-.106a14.231,14.231,0,0,0-15.8-4.787A8.528,8.528,0,0,1,774,124.97c.024.028.05.056.076.084a2.842,2.842,0,0,0,4.105.016,1.57,1.57,0,0,0,.112-.124,8.53,8.53,0,0,1,13.72,1.642A14.2,14.2,0,0,0,787.47,125.846Zm10.4-25.935a8.527,8.527,0,0,1-13.34-1.641c-.048-.082-.1-.164-.14-.247L799.158,89.5c.048.082.094.164.141.247A8.533,8.533,0,0,1,797.871,99.912Z" transform="translate(-1335.651 266.32)" fill="#fff"/>
    </g>
  </g>
</svg>
