<svg xmlns="http://www.w3.org/2000/svg" width="32" height="32" viewBox="0 0 32 32">
  <g id="twitter" transform="translate(-573 -1892)">
    <circle id="Ellipse_2" data-name="Ellipse 2" cx="16" cy="16" r="16" transform="translate(573 1892)" fill="none"/>
    <path id="twitter-2" data-name="twitter" d="M80.032,111.451a9.277,9.277,0,0,0,9.34-9.34c0-.142,0-.284-.01-.424A6.679,6.679,0,0,0,91,99.988a6.552,6.552,0,0,1-1.885.516,3.294,3.294,0,0,0,1.443-1.816,6.579,6.579,0,0,1-2.084.8,3.286,3.286,0,0,0-5.594,2.994,9.32,9.32,0,0,1-6.765-3.43,3.285,3.285,0,0,0,1.016,4.382,3.258,3.258,0,0,1-1.49-.411v.042a3.284,3.284,0,0,0,2.634,3.218,3.277,3.277,0,0,1-1.482.056,3.286,3.286,0,0,0,3.067,2.28,6.587,6.587,0,0,1-4.077,1.408,6.683,6.683,0,0,1-.781-.047,9.293,9.293,0,0,0,5.032,1.472" transform="translate(506 1802.55)" fill="#fff"/>
  </g>
</svg>
