<svg xmlns="http://www.w3.org/2000/svg" width="32" height="32" viewBox="0 0 32 32">
  <g id="youtube" transform="translate(-1209 -1420)">
    <circle id="Ellipse_16" data-name="Ellipse 16" cx="16" cy="16" r="16" transform="translate(1209 1420)" fill="none"/>
    <path id="youtube-2" data-name="youtube" d="M15.67,1.753A2.005,2.005,0,0,0,14.26.343,46.831,46.831,0,0,0,8,0,48.659,48.659,0,0,0,1.74.33,2.045,2.045,0,0,0,.33,1.753,21.114,21.114,0,0,0,0,5.6,21.038,21.038,0,0,0,.33,9.45a2.005,2.005,0,0,0,1.41,1.41A46.933,46.933,0,0,0,8,11.2a48.659,48.659,0,0,0,6.26-.33,2,2,0,0,0,1.41-1.41A21.134,21.134,0,0,0,16,5.614a20.04,20.04,0,0,0-.33-3.861ZM6.405,8V3.2L10.57,5.6Zm0,0" transform="translate(1217 1430)" fill="#fff"/>
  </g>
</svg>
